<?xml version="1.0" standalone="no"?>
<!DOCTYPE svg PUBLIC "-//W3C//DTD SVG 1.1//EN" "http://www.w3.org/Graphics/SVG/1.1/DTD/svg11.dtd" >
<!--
2013-9-30: Created.
-->
<svg>
<metadata>
Created by iconfont
</metadata>
<defs>

<font id="iconfont" horiz-adv-x="1024" >
  <font-face
    font-family="iconfont"
    font-weight="500"
    font-stretch="normal"
    units-per-em="1024"
    ascent="896"
    descent="-128"
  />
    <missing-glyph />
    
    <glyph glyph-name="management" unicode="&#58974;" d="M581.2-60.3l-15.4 40.1C557.1 2.4 536 17 512 17c-23.9 0-45-14.6-53.7-37.3l-15.4-40.1-41.6 10.6c-41.3 10.5-80.8 26.8-117.6 48.6l-37 22 17.5 39.3c9.8 22.1 5.3 47.3-11.7 64.2-16.9 17-42.1 21.5-64.3 11.8l-39.3-17.5-22 37c-21.7 36.6-38.1 76.1-48.6 117.5l-10.6 41.7 40.1 15.4C130.4 338.9 145 360 145 384c0 23.9-14.6 45-37.3 53.7l-40.1 15.4 10.6 41.6c10.6 41.5 27 81.1 48.8 117.6l22 36.8 39.2-17.4c22.1-9.8 47.3-5.2 64.3 11.8 16.9 16.9 21.5 42.1 11.7 64.2L246.7 747l37 22c36.6 21.7 76.1 38.1 117.5 48.6l41.7 10.6 15.4-40.2c8.7-22.4 29.7-37 53.7-37 23.9 0 45 14.6 53.8 37.3l15.5 40 41.6-10.6c41.3-10.5 80.8-26.9 117.5-48.6l37.1-21.9-17.6-39.4c-9.8-22.1-5.2-47.3 11.7-64.2 17-17 42.2-21.5 64.3-11.8l39.3 17.5 22-37c21.7-36.6 38.1-76.2 48.6-117.5l10.6-41.7-40.1-15.4C893.6 429 879 408 879 384c0-24 14.6-45.1 37.2-53.7l40.1-15.4-10.6-41.6c-10.5-41.5-26.9-81-48.8-117.6l-22-36.8-39.1 17.4c-22.1 9.8-47.3 5.2-64.3-11.8s-21.6-42.1-11.7-64.3l17.5-39.3-37-22c-36.7-21.7-76.2-38.1-117.5-48.6l-41.6-10.6zM364.7 65.4c8.5-3.9 17.2-7.5 26-10.8 28.7 36.8 72.8 59.1 121.3 59.1s92.7-22.2 121.4-59.1c8.7 3.2 17.2 6.8 25.6 10.6-5.8 46.3 9.8 93.2 44.1 127.5 33.7 33.7 81.2 49.4 127.5 43.9 3.9 8.5 7.5 17.1 10.7 25.9-36.8 28.7-59 72.8-59 121.4 0 48.6 22.2 92.7 59 121.4-3.2 8.7-6.7 17.3-10.6 25.7-46.1-5.9-93.2 9.8-127.5 44.2-33.7 33.6-49.3 81.1-43.8 127.3-8.5 3.9-17.2 7.5-26 10.7-28.7-36.8-72.8-59-121.3-59-48.6 0-92.7 22.2-121.4 59-8.7-3.2-17.3-6.8-25.7-10.6 5.8-46.3-9.7-93.2-44.1-127.5-33.7-33.7-81.3-49.3-127.5-43.9-3.9-8.5-7.5-17.2-10.8-26 36.8-28.7 59-72.8 59-121.3s-22.2-92.7-59-121.4c3.2-8.7 6.8-17.2 10.6-25.6 46.2 5.7 93.2-9.8 127.6-44.2 33.8-33.6 49.3-81.1 43.9-127.3z m147.3 164c-85.2 0-154.6 69.3-154.6 154.6 0 85.2 69.3 154.6 154.6 154.6 85.2 0 154.6-69.3 154.6-154.6 0-85.2-69.4-154.6-154.6-154.6z m0 212.4c-31.9 0-57.8-25.9-57.8-57.8s25.9-57.8 57.8-57.8 57.8 25.9 57.8 57.8-25.9 57.8-57.8 57.8z"  horiz-adv-x="1024" />

    
    <glyph glyph-name="understandmore" unicode="&#58975;" d="M633.5 605.7c27.2-24.4 41.1-57.8 41.1-99.7 0-34.2-9-62.7-25.8-85-6.3-7.7-25.8-25.8-59.2-54.4-12.5-11.1-22.3-23-28.6-35.5-7.7-13.9-11.2-29.3-11.2-46.7v-11.9h-74.6v11.9c0 25.8 4.2 48.1 13.9 67.6 9.8 18.8 25.8 38.3 48.1 57.8 22.3 20.9 36.9 34.2 42.5 40.4 12.6 16 19.5 32.8 19.5 50.9 0 24.4-6.9 43.2-20.9 57.2-13.9 13.9-33.4 20.9-58.5 20.9-30.7 0-53.7-9.8-68.3-29.3-12.5-16.8-18.8-41.2-18.8-71.8h-73.9c0 50.9 15.4 90.6 44.6 119.9 29.3 30 69.7 44.6 120.6 44.6 45.3 0 81.6-11.9 109.5-36.9z m-84.4-384.8c9.8-9 14.7-20.9 14.7-35.5 0-14.6-4.9-26.5-14.7-36.2-10.4-9.1-23-13.9-36.9-13.9-13.9 0-25.8 4.9-35.5 14.6-10.5 9.8-15.3 21.6-15.3 35.6 0 14.6 4.9 26.5 15.3 35.5 9.7 9.8 21.6 13.9 35.5 13.9 14.6 0 27.2-4.2 36.9-14zM512-63.8C265.1-63.8 64.2 137.1 64.2 384S265.1 831.8 512 831.8 959.8 630.9 959.8 384 758.9-63.8 512-63.8z m0 796.1c-192.1 0-348.3-156.2-348.3-348.3 0-192 156.2-348.3 348.3-348.3 192 0 348.3 156.3 348.3 348.3 0 192.1-156.3 348.3-348.3 348.3z"  horiz-adv-x="1024" />

    
    <glyph glyph-name="close" unicode="&#58900;" d="M507.168 422.768L716.48 632.064a16 16 0 0 0 22.624 0l11.312-11.312a16 16 0 0 0 0-22.624L541.12 388.832 750.4 179.52a16 16 0 0 0 0-22.624l-11.312-11.312a16 16 0 0 0-22.624 0L507.168 354.88 297.872 145.6a16 16 0 0 0-22.624 0l-11.312 11.312a16 16 0 0 0 0 22.624l209.296 209.312-209.296 209.296a16 16 0 0 0 0 22.624l11.312 11.312a16 16 0 0 0 22.624 0l209.296-209.296z"  horiz-adv-x="1024" />

    
    <glyph glyph-name="deployments2" unicode="&#58967;" d="M876.8 506.4c27 0 49 21.9 49 49V751.3c0 27-21.9 49-49 49H680.9c-27 0-49-21.9-49-49v-49H393v49c0 27-21.9 49-49 49H148.2c-27 0-49-21.9-49-49v-195.9c0-27 21.9-49 49-49h24.5v-244.9h-24.5c-27 0-49-21.9-49-49v-195.9c0-27 21.9-49 49-49h195.9c27 0 49 21.9 49 49v49H632v-49c0-27 21.9-49 49-49h195.9c27 0 49 21.9 49 49v196c0 27-21.9 49-49 49h-24.5V506.4h24.4zM705.4 261.6h-24.5c-27 0-49-21.9-49-49H393c0 27-21.9 49-49 49h-24.5V506.4H344c27 0 49 21.9 49 49h239c0-27 21.9-49 49-49h24.5v-244.8z"  horiz-adv-x="1024" />

    
    <glyph glyph-name="deployments1" unicode="&#58964;" d="M876.8 506.4c27 0 49 21.9 49 49V751.3c0 27-21.9 49-49 49H680.9c-27 0-49-21.9-49-49v-49H393v49c0 27-21.9 49-49 49H148.2c-27 0-49-21.9-49-49v-195.9c0-27 21.9-49 49-49h24.5v-244.9h-24.5c-27 0-49-21.9-49-49v-195.9c0-27 21.9-49 49-49h195.9c27 0 49 21.9 49 49v49H632v-49c0-27 21.9-49 49-49h195.9c27 0 49 21.9 49 49v196c0 27-21.9 49-49 49h-24.5V506.4h24.4zM705.4 261.6h-24.5c-27 0-49-21.9-49-49H393c0 27-21.9 49-49 49h-24.5V506.4H344c27 0 49 21.9 49 49h239c0-27 21.9-49 49-49h24.5v-244.8z"  horiz-adv-x="1024" />

    
    <glyph glyph-name="billing1" unicode="&#58965;" d="M848.7 384c0 53.7 30.5 100.3 75.2 123.3V695.9c0 57.4-46.6 104-104 104H204c-57.4 0-104-46.6-104-104V511c49-21.4 83.2-70.3 83.2-127.1S149 278.29999999999995 100 256.9V72c0-57.4 46.6-104 104-104h616c57.4 0 104 46.6 104 104V260.6c-44.7 23.1-75.3 69.7-75.3 123.4zM723.9 124H308V228h416v-104z m0 208H308V436h416v-104z m0 208H308V644h416v-104z"  horiz-adv-x="1024" />

    
    <glyph glyph-name="event1" unicode="&#58966;" d="M822.6 694.6h-51.8V798.2H615.5v-103.5H460.2V798.2H304.9v-103.5H201.4c-57.2 0-103.5-46.4-103.5-103.5v-517.7c0-57.2 46.4-103.5 103.5-103.5h621.2c57.2 0 103.5 46.4 103.5 103.5V591.1c0.1 57.2-46.3 103.5-103.5 103.5zM615.5 125.10000000000002H253.1V228.70000000000005h362.4v-103.6z m155.4 155.4H253.1V384h517.7v-103.5z m0 155.3H253.1V539.3h517.7v-103.5z"  horiz-adv-x="1024" />

    
    <glyph glyph-name="billing2" unicode="&#58968;" d="M848.7 384c0 53.7 30.5 100.3 75.2 123.3V695.9c0 57.4-46.6 104-104 104H204c-57.4 0-104-46.6-104-104V511c49-21.4 83.2-70.3 83.2-127.1S149 278.29999999999995 100 256.9V72c0-57.4 46.6-104 104-104h616c57.4 0 104 46.6 104 104V260.6c-44.7 23.1-75.3 69.7-75.3 123.4zM723.9 124H308V228h416v-104z m0 208H308V436h416v-104z m0 208H308V644h416v-104z"  horiz-adv-x="1024" />

    
    <glyph glyph-name="event2" unicode="&#58969;" d="M822.6 694.6h-51.8V798.2H615.5v-103.5H460.2V798.2H304.9v-103.5H201.4c-57.2 0-103.5-46.4-103.5-103.5v-517.7c0-57.2 46.4-103.5 103.5-103.5h621.2c57.2 0 103.5 46.4 103.5 103.5V591.1c0.1 57.2-46.3 103.5-103.5 103.5zM615.5 125.10000000000002H253.1V228.70000000000005h362.4v-103.6z m155.4 155.4H253.1V384h517.7v-103.5z m0 155.3H253.1V539.3h517.7v-103.5z"  horiz-adv-x="1024" />

    
    <glyph glyph-name="i18n" unicode="&#58895;" d="M496 896C222.048 896 0 673.952 0 400s222.048-496 496-496 496 222.048 496 496S769.952 896 496 896z m431.2-480H735.328c-1.76 70.88-14.368 138.592-36.736 200.576a522.688 522.688 0 0 1 119.552 70.304A429.856 429.856 0 0 0 927.2 416zM478.304-31.104000000000042c-53.184 44.288-97.792 101.792-130.432 168.576A495.904 495.904 0 0 0 480 159.20000000000005v-190.368l-1.696 0.064z m35.328 862.208c60.352-50.24 109.6-117.536 142.912-196.032-45.632-15.584-94.112-24.64-144.576-26.24V831.2l1.664-0.096z m53.312-5.44a430.816 430.816 0 0 0 229.248-115.648 489.504 489.504 0 0 0-109.696-63.936c-29.12 69.024-69.984 130.048-119.552 179.584zM480 831.2v-222.368a495.744 495.744 0 0 0-144.576 26.24c33.312 78.496 82.56 145.792 142.912 196.032L480 831.2zM305.472 646.048a490.72 490.72 0 0 0-109.664 63.936A430.72 430.72 0 0 0 425.056 825.6320000000001c-49.6-49.504-90.432-110.528-119.584-179.584z m17.888-40.48c49.344-17.12 101.92-27.104 156.64-28.768V416H288.672c1.728 67.008 13.6 131.04 34.688 189.568zM480 384v-192.8a525.152 525.152 0 0 1-145.248-24.608A601.12 601.12 0 0 0 288.672 384H480z m-54.944-409.664A429.792 429.792 0 0 0 215.616 72a486.368 486.368 0 0 0 102.016 54.4 554.144 554.144 0 0 1 107.424-152.064zM512-31.200000000000045V159.168c45.824-1.472 90.24-8.64 132.128-21.728-32.672-66.784-77.248-124.288-130.432-168.576a31.2 31.2 0 0 1-1.696-0.064z m162.368 157.6A490.24 490.24 0 0 0 776.384 72a430.08 430.08 0 0 0-209.44-97.664A554.816 554.816 0 0 1 674.368 126.39999999999998z m-17.12 40.192A525.568 525.568 0 0 1 512 191.20000000000005V384h191.328a601.792 601.792 0 0 0-46.08-217.408zM512 416V576.8a526.08 526.08 0 0 1 156.64 28.736c21.056-58.528 32.928-122.56 34.688-189.568H512zM173.888 686.88a523.2 523.2 0 0 1 119.52-70.304C271.04 554.592 258.432 486.88 256.672 416H64.8a429.728 429.728 0 0 0 109.088 270.88zM64.8 384h191.872a631.168 631.168 0 0 1 48.096-228.384 519.36 519.36 0 0 1-113.216-61.792A430.816 430.816 0 0 0 64.8 384z m735.648-290.144A520.192 520.192 0 0 1 687.2 155.64800000000002a631.2 631.2 0 0 1 48.128 228.384H927.2a430.848 430.848 0 0 0-126.752-290.176z"  horiz-adv-x="1024" />

    
    <glyph glyph-name="monitor" unicode="&#58894;" d="M944.89359803 765.11206717H79.10640197v-762.22413434h863.71593483V765.11206717z m-41.4252247-41.4252247V373.64369382999996H822.68918518l-39.35396345 128.41819654L729.48242963 297.00702815l-47.63900839 277.54900543-47.63900841-198.84107852h-93.20675555l-24.85513481-57.99531456L470.57477531 495.84810667l-70.42288198-302.40414025-97.34927802 437.03612049-72.49414321-256.83639308h-109.77684543V723.68684247h782.93674666zM120.53162667 44.31315753000001V352.93108148h126.3469353l53.85279211 192.62729482 99.42053925-445.32116544L470.57477531 408.85513482l39.35396345-157.41585384L553.42522469 352.93108148h97.34927803l26.92639604 115.99062913L723.26864592 197.58648889000006l62.13783705 227.8387358 20.71261234-72.49414321h95.27801679v-308.61792395H120.53162667z"  horiz-adv-x="1024" />

    
    <glyph glyph-name="cancel" unicode="&#58893;" d="M848.60000002 329.09999999q0-69.29999998-26.10000003-130.49999999t-71.54999999-108.44999999T643.84999999 12.75t-132.74999998-36.44999998q-4.50000001-0.90000001-8.10000001-1.35000002t-8.09999998-0.44999999H339.2q-15.30000001 0-30.15000001 5.4T282.49999999-5.25t-19.34999999 22.05000001-7.64999999 26.1 7.2 26.09999997 18.89999998 21.60000002 26.10000002 14.4 29.69999998 5.39999999l139.50000004-0.89999998q47.70000001 0 89.99999996 17.54999998t73.8 47.25000002 49.50000001 69.74999999 18 85.94999999q0 43.20000001-16.2 81.00000001t-44.55 67.50000001-66.15000002 48.14999998-81.89999997 22.95000001q-1.8 0-2.25000001-0.45t-2.24999998-0.44999999H351.79999999v-71.1q0-15.30000001-12.14999999-22.5t-39.14999999 9q-7.2 4.50000001-22.95000001 15.74999999t-36.9 26.55-44.54999999 32.4l-45.00000002 34.2q-13.50000001 10.8-23.4 19.35T117.8 613.50000001q0 10.8 11.25 22.49999999t25.64999999 23.4q16.2 13.50000001 38.70000001 31.49999999t44.55 35.10000001 39.6 31.05000001 24.74999999 19.35000002q21.59999999 15.30000001 35.1 6.29999996t14.4-27.00000001v-71.99999996h143.09999999q4.50000001 0 9.45000002-0.90000001t9.45-1.80000001q70.2-7.2 131.4-36.90000001t106.65-76.94999999 71.1-108.45000001 25.64999999-129.59999998z"  horiz-adv-x="1024" />

    
    <glyph glyph-name="view" unicode="&#58892;" d="M511 63.39999999999998C265.9 63.39999999999998 66.9 258 66.9 385s199 321.6 444.1 321.6S955.1 512 955.1 385c0-144.8-204.9-321.6-444.1-321.6z m0 581.9c-217.3 0-382.8-173.5-382.8-260.3S293.7 124.70000000000005 511 124.70000000000005c98.2 0 195.4 33.1 273.7 93.2C852 269.5 893.8 333.6 893.8 385c0 86.8-165.5 260.3-382.8 260.3zM511 216.60000000000002c-92.9 0-168.4 75.6-168.4 168.4S418.1 553.4 511 553.4 679.4 477.9 679.4 385 603.9 216.60000000000002 511 216.60000000000002z m0 275.6c-59.1 0-107.2-48.1-107.2-107.2S451.9 277.79999999999995 511 277.79999999999995 618.2 325.9 618.2 385 570.1 492.2 511 492.2z"  horiz-adv-x="1024" />

    
    <glyph glyph-name="voucher" unicode="&#58891;" d="M632.38 75.47000000000003h-49.5c-9.94 0-18 8.06-18 18s8.06 18 18 18h49.5c9.94 0 18-8.06 18-18s-8.06-18-18-18zM1002.58550518 9.55885036999996H805.55273482c-12.06347852 0-21.84533333 9.78185482-21.84533334 21.84533333s9.78185482 21.84533333 21.84533334 21.84533333h188.54949926V227.73304888999996c-82.02922667 6.63855408-146.67927703 73.14545778-146.67927705 153.93678222s64.65005037 147.29822815 146.67927705 153.93678222V714.75048297H29.89776592v-179.07105186c82.46613333-6.22592 147.58949925-72.91486815 147.58949926-154.0096 0-81.09473185-65.13550222-147.78368-147.58949926-154.0096v-174.41071408h475.26949926c12.06347852 0 21.84533333-9.78185482 21.84533334-21.84533333s-9.78185482-21.84533333-21.84533334-21.84533333h-483.75277036c-19.41807408 0-35.20739555 15.54659555-35.20739557 34.66126222V249.33565629999998c0 6.03173925 2.50007703 11.79648 6.8934163 15.92282073s10.32798815 6.26232889 16.33545482 5.87396742c2.71853037-0.16990815 5.36424297-0.25486222 7.86432-0.25486223 64.2374163 0 116.50844445 49.69813333 116.50844445 110.79224889s-52.25889185 110.79224889-116.50844445 110.79224889c-2.51221333 0-5.15792592-0.08495408-7.86432-0.25486222-6.01960297-0.37622518-11.92997925 1.74762667-16.33545482 5.8739674-4.39333925 4.12634075-6.8934163 9.89108148-6.8934163 15.92282074V723.77988741c0 19.11466667 15.80145778 34.66126222 35.20739557 34.66126222h981.15887407c19.41807408 0 35.20739555-15.54659555 35.20739556-34.66126222v-209.7152c0-6.00746667-2.47580445-11.74793482-6.84487112-15.87427556-4.36906667-4.12634075-10.25517037-6.27446518-16.23836444-5.93464888-2.50007703 0.14563555-4.81810963 0.20631703-7.09973334 0.20631703-64.2374163 0-116.50844445-49.69813333-116.50844444-110.79224889s52.27102815-110.79224889 116.50844444-110.79224889c2.26948741 0 4.58752 0.07281778 7.09973334 0.20631703 5.97105778 0.35195259 11.86929778-1.80830815 16.23836444-5.93464888 4.36906667-4.12634075 6.84487111-9.86680889 6.84487112-15.87427555v-205.06699852c0.0121363-19.10253037-15.78932148-34.64912592-35.19525927-34.64912593zM420.88 401.85c-38.46 0-69.75 31.29-69.75 69.75s31.29 69.75 69.75 69.75 69.75-31.29 69.75-69.75c-0.01-38.46-31.29-69.75-69.75-69.75z m0 103.5c-18.61 0-33.75-15.14-33.75-33.75s15.14-33.75 33.75-33.75 33.75 15.14 33.75 33.75c-0.01 18.61-15.15 33.75-33.75 33.75z m187.5-290.25c-38.46 0-69.75 31.29-69.75 69.75s31.29 69.75 69.75 69.75 69.75-31.29 69.75-69.75-31.3-69.75-69.75-69.75z m0 103.5c-18.61 0-33.75-15.14-33.75-33.75s15.14-33.75 33.75-33.75 33.75 15.14 33.75 33.75-15.15 33.75-33.75 33.75z m-225-91.5c-4.6 0-9.2 1.75-12.71 5.25-7.04 7.02-7.05 18.42-0.03 25.46l276.75 277.5c7.02 7.04 18.42 7.05 25.46 0.03 7.04-7.02 7.05-18.42 0.03-25.46l-276.75-277.5a18 18 0 0 0-12.75-5.28z"  horiz-adv-x="1024" />

    
    <glyph glyph-name="billing" unicode="&#58954;" d="M925.7 259.3v-291.6H104.4V255.6c48.8 21.3 82.9 70 82.9 126.7S153.2 487.7 104.4 509V796.9h821.3v-291.6c-44.6-22.9-75-69.4-75-122.9s30.4-100.1 75-123.1zM908.4 494.7l17.3 12.4V796.9H104.4V511l19.1-12.2c39.9-25.5 63.8-69.1 63.8-116.5 0-47.4-23.8-91-63.8-116.5l-19.1-12.2v-285.9h821.3V257.5l-17.3 12.4c-36.1 25.9-57.7 67.9-57.7 112.4s21.5 86.5 57.7 112.4z m-65.7 53.6c-47.3-41.7-75-102.3-75-166s27.7-124.3 75-166v-165.7H187.3v159c52.3 41.7 82.9 104.7 82.9 172.7S239.6 513.2 187.3 555V714h655.4v-165.7zM339.3 631h359.3v-82.9H339.3zM339.3 437.6h359.3v-82.9H339.3zM339.3 257.9h359.3V175H339.3z"  horiz-adv-x="1024" />

    
    <glyph glyph-name="present" unicode="&#58953;" d="M926.4 599.4h-87.6c41.4 49.8 54.1 101.5 30.5 142.4-12.4 21.5-45.4 56-124.4 46.6-43.9-5.2-94.3-23.3-142.2-51-36.2-20.9-66.4-48-90.6-81.3-24.2 33.2-54.5 60.4-90.6 81.2C302.7 806 193 807.8 154.9 741.7c-23.6-41-10.9-92.7 30.5-142.4H97.6v-207.2h51.8v-414.4h725.1V392.2h51.8V599.4z m-272 48.3c53.6 31 95.3 38.7 116.5 38.7 0.8 0 1.5 0 2.3-0.1-9.7-17.9-37.3-51.4-92.9-83.5-2.1-1.2-4.2-2.4-6.3-3.5h-75.1c15.2 19.7 33.6 35.8 55.5 48.4z m-310.7-44.8c-55.6 32.1-83.2 65.6-92.9 83.5 20.4 1.2 63.2-6.6 118.8-38.7 21.9-12.6 40.3-28.7 55.5-48.3H350c-2.1 1.1-4.2 2.2-6.3 3.5zM771 81.4H253V392.2h518v-310.8z"  horiz-adv-x="1024" />

    
    <glyph glyph-name="download" unicode="&#58890;" d="M771.238 546.966C722.476 658.772 611.096 737 481.326 737c-174.674 0-316.28-141.604-316.28-316.278 0-0.954 0.134-1.872 0.142-2.824C75.402 402.87 6.906 325.008 6.906 230.954c0-104.806 84.964-189.768 189.77-189.768h600.928v2.186c124.78 15.594 221.398 121.828 221.398 250.838-0.002 137.962-110.478 249.928-247.764 252.756zM512.954 136.07l-158.14 158.14h94.884V515.604H576.21v-221.396h94.882L512.954 136.07z"  horiz-adv-x="1024" />

    
    <glyph glyph-name="paypal" unicode="&#58941;" d="M1321.6768 618.018133H1126.075733a27.1872 27.1872 0 0 1-26.8288-22.954666l-79.086933-501.486934a16.2816 16.2816 0 0 1 16.162133-18.773333h93.576534a27.1872 27.1872 0 0 1 26.8288 22.954667l21.333333 135.2192a27.136 27.136 0 0 0 26.8288 22.954666h61.610667c128.802133 0 203.093333 62.378667 222.549333 185.873067 8.738133 54.016 0.375467 96.494933-24.951467 126.293333-27.6992 32.6144-76.970667 49.902933-142.404266 49.902934z m22.5792-183.125333c-10.666667-70.178133-64.3072-70.178133-116.138667-70.178133h-29.508266l20.701866 130.986666a16.2816 16.2816 0 0 0 15.9744 13.841067h13.533867c35.293867 0 68.608 0 85.828267-20.138667a64.853333 64.853333 0 0 0 9.540266-54.510933z m561.92 2.2528h-93.610667a16.3328 16.3328 0 0 1-15.9744-13.653333l-4.113066-26.197334-6.229334 9.489067c-20.2752 29.44-65.4848 39.253333-110.592 39.253333-103.4752 0-191.863467-78.404267-209.083733-188.3136a176.981333 176.981333 0 0 1 34.8672-143.837866 146.5856 146.5856 0 0 1 117.947733-47.650134 179.2 179.2 0 0 1 129.604267 53.640534L1744.810667 93.866667a16.2816 16.2816 0 0 1 16.093866-18.773334h84.3264a27.1872 27.1872 0 0 1 26.8288 22.954667l50.5856 320.546133a16.213333 16.213333 0 0 1-16.5376 18.5856z m-130.542933-182.254933a104.3456 104.3456 0 0 0-105.659734-89.4464 72.226133 72.226133 0 0 0-77.568 90.760533 104.8576 104.8576 0 0 0 104.9088 90.129067 78.813867 78.813867 0 0 0 62.378667-25.514667 81.1008 81.1008 0 0 0 16.0256-65.928533z m629.282133 182.2208h-94.0032a27.306667 27.306667 0 0 1-22.510933-11.946667l-129.928534-191.146667-54.8864 183.688534a27.306667 27.306667 0 0 1-26.197333 19.4048h-92.450133a16.2816 16.2816 0 0 1-15.4624-21.589334l103.662933-304.384-97.416533-137.216a16.2816 16.2816 0 0 1 13.277866-25.7536h94.0032a27.136 27.136 0 0 1 22.3232 11.656534l312.9856 451.771733a16.2816 16.2816 0 0 1-13.4144 25.6zM2716.535467 618.018133h-195.601067a27.136 27.136 0 0 1-26.8288-22.954666l-79.086933-501.486934a16.2816 16.2816 0 0 1 16.093866-18.773333h100.369067a18.773333 18.773333 0 0 1 18.773333 16.093867l22.459734 142.148266a27.136 27.136 0 0 0 26.811733 22.954667h61.883733c128.8704 0 203.093333 62.378667 222.600534 185.873067 8.789333 54.016 0.375467 96.494933-24.951467 126.293333-27.818667 32.6144-76.919467 49.851733-142.523733 49.851733z m22.5792-183.125333c-10.666667-70.178133-64.3072-70.178133-116.138667-70.178133h-29.508267l20.701867 130.986666a16.213333 16.213333 0 0 0 16.093867 13.789867h13.533866c35.310933 0 68.608 0 85.828267-20.155733a65.143467 65.143467 0 0 0 9.4208-54.459734z m561.937066 2.2528h-93.559466a16.213333 16.213333 0 0 1-16.093867-13.789867l-4.113067-26.197333-6.5536 9.489067c-20.2752 29.44-65.4336 39.253333-110.592 39.253333-103.4752 0-191.863467-78.404267-209.066666-188.3136a176.7424 176.7424 0 0 1 34.8672-143.837867 146.5856 146.5856 0 0 1 117.947733-47.650133 179.2 179.2 0 0 1 129.621333 53.640533l-4.181333-26.0096a16.2816 16.2816 0 0 1 16.162133-18.773333h84.3264a27.136 27.136 0 0 1 26.8288 22.954667l50.653867 320.546133a16.3328 16.3328 0 0 1-16.213333 18.653867z m-130.542933-182.254933a104.3456 104.3456 0 0 0-105.659733-89.4464 72.226133 72.226133 0 0 0-77.585067 90.760533 104.8576 104.8576 0 0 0 104.9088 90.129067 78.813867 78.813867 0 0 0 62.378667-25.514667 80.64 80.64 0 0 0 15.940266-65.8944z m240.9472 349.422933l-80.401067-510.651733a16.2816 16.2816 0 0 1 16.093867-18.773334h80.708267a27.136 27.136 0 0 1 26.8288 22.954667l79.1552 501.418667a16.2816 16.2816 0 0 1-16.093867 18.773333h-90.197333a16.349867 16.349867 0 0 1-16.093867-13.653333zM208.059733-22.59626700000001l14.967467 94.993067-33.314133 0.750933H30.600533l110.592 700.962134a9.233067 9.233067 0 0 0 3.1232 5.495466 9.045333 9.045333 0 0 0 5.870934 2.184534h267.946666c89.070933 0 150.510933-18.773333 182.613334-55.074134a125.627733 125.627733 0 0 0 29.508266-54.8352 197.973333 197.973333 0 0 0 0-75.605333l-0.375466-2.184533v-19.336534l15.223466-8.2944a105.540267 105.540267 0 0 0 30.429867-23.210666 108.100267 108.100267 0 0 0 24.951467-55.381334 234.3936 234.3936 0 0 0-3.413334-80.401066 283.170133 283.170133 0 0 0-32.938666-90.999467 187.118933 187.118933 0 0 0-52.514134-57.514667 211.626667 211.626667 0 0 0-70.2976-31.6928 350.498133 350.498133 0 0 0-87.7568-10.103466h-20.957866a62.805333 62.805333 0 0 1-62.378667-52.906667l-1.553067-8.533333-26.453333-167.406934-1.1776-6.229333a5.307733 5.307733 0 0 0-1.706667-3.549867 4.437333 4.437333 0 0 0-2.747733-0.989866zM659.336533 591.803733q-1.1776-7.68-2.747733-15.7184C621.226667 394.461867 500.224 331.77599999999995 345.6512 331.77599999999995h-78.711467a38.229333 38.229333 0 0 1-37.802666-32.426667l-40.2944-255.726933-11.349334-72.226133a20.138667 20.138667 0 0 1 19.899734-23.261867h139.7248a33.553067 33.553067 0 0 1 33.1776 28.3136l1.365333 7.1168 26.2656 166.792533 1.706667 9.1648a33.553067 33.553067 0 0 0 33.1776 28.381867h20.8896c135.2192 0 241.066667 54.8864 272.008533 213.76 12.919467 66.372267 6.229333 121.7536-27.938133 160.733867a133.4784 133.4784 0 0 1-38.417067 29.371733zM622.336 606.5834669999999q-8.106667 2.372267-16.708267 4.3008t-17.7152 3.413333a437.026133 437.026133 0 0 1-69.358933 5.12H308.360533a33.501867 33.501867 0 0 1-33.1264-28.381867l-44.782933-283.306666-1.314133-8.226134a38.229333 38.229333 0 0 0 37.802666 32.426667h78.711467c154.555733 0 275.575467 62.754133 310.9376 244.309333 1.058133 5.358933 1.928533 10.5984 2.747733 15.7184a188.5184 188.5184 0 0 1-29.013333 12.032zM275.165867 590.9162670000001a33.553067 33.553067 0 0 0 33.1264 28.3136H518.485333a437.026133 437.026133 0 0 0 69.358934-5.12q9.1136-1.4336 17.7152-3.413334t16.708266-4.3008l7.9872-2.6112a191.317333 191.317333 0 0 0 29.013334-12.475733c10.5472 67.106133 0 112.827733-36.369067 154.180267-39.9872 45.533867-112.264533 65.058133-204.578133 65.058133H149.981867A38.365867 38.365867 0 0 1 112.64 778.530133L0.290133 70.53653299999996a23.022933 23.022933 0 0 1 22.698667-26.641066h165.922133l41.608534 263.7824z"  horiz-adv-x="3534" />

    
    <glyph glyph-name="init" unicode="&#58888;" d="M964.8 605.184C842.88 816.384 571.904 888.96 360.704 766.976 261.888 709.952 190.656 618.88 158.4 510.016H36.928C16.512 510.016 0 493.44 0 473.088c0-20.416 16.512-36.992 36.928-36.992H386.56c20.416 0 36.928 16.512 36.928 36.992 0 20.416-16.512 36.928-36.928 36.928H246.144c29.248 78.016 82.56 143.68 155.648 185.856 172.032 99.328 392.704 40.256 492.032-131.776C993.216 392.064 933.952 171.32799999999997 761.92 72c-172.032-99.264-392.64-40.128-491.968 131.904l-0.192 0.384 109.184-29.376c22.016-5.824 44.416 7.168 50.304 28.992 5.76 22.016-7.168 44.48-29.056 50.368L195.264 309.12c-10.624 2.752-21.76 1.344-31.168-4.032-9.344-5.44-16.32-14.464-19.136-24.96L90.112 75.26400000000001c-5.888-21.952 7.04-44.352 28.992-50.368 21.952-5.76 44.416 7.232 50.304 29.12l29.248 109.248 0.192-0.384c121.92-211.2 392.896-283.84 604.096-161.856 211.2 121.984 283.776 392.96 161.856 604.16z"  horiz-adv-x="1024" />

    
    <glyph glyph-name="add" unicode="&#58887;" d="M542.308 416h383.983c17.672 0 31.998-14.326 31.998-31.999s-14.326-31.999-31.998-31.999H542.308v-383.981c0-17.673-14.326-31.999-31.999-31.999s-31.998 14.326-31.998 31.999V352.00300000000004H94.33c-17.673 0-32 14.327-32 31.999s14.327 31.999 32 31.999h383.98V799.98c0 17.673 14.327 31.999 32 31.999s31.998-14.326 31.998-31.999V416z"  horiz-adv-x="1024" />

    
    <glyph glyph-name="import" unicode="&#58886;" d="M892.719 272.25c-21 0-37.969-17.063-37.969-37.969V44.25H170.469V234.188c0 21-17.063 37.968-37.969 37.968-21 0-37.969-17.062-37.969-37.968v-228.094c0-21 17.063-37.969 37.969-37.969h760.219c21 0 37.968 17.063 37.968 37.969V234.187c0 21-16.968 38.063-37.968 38.063zM465.406 132.28099999999995a37.932 37.932 0 0 1 28.125-12.468c10.688 0 20.906 4.5 28.125 12.468L730.72 360.375c14.25 15.563 13.218 39.656-2.25 54-15.563 14.25-39.657 13.219-54-2.25L533.562 258.187V766.312c0 21-17.062 37.97-37.968 37.97-21 0-37.969-17.063-37.969-37.97v-512.625L312.594 412.125c-14.25 15.563-38.438 16.594-54 2.25-15.563-14.25-16.594-38.438-2.25-54l209.062-228.094z"  horiz-adv-x="1024" />

    
    <glyph glyph-name="disable" unicode="&#58885;" d="M512 827.733C267.378 827.733 68.267 628.623 68.267 384S267.377-59.73299999999995 512-59.73299999999995 955.733 139.37699999999995 955.733 384 756.623 827.733 512 827.733z m0-91.022c80.782 0 155.876-27.307 215.04-72.818L232.107 168.96000000000004c-45.511 59.164-72.818 134.258-72.818 215.04 0 194.56 158.151 352.711 352.711 352.711z m0-705.422c-80.782 0-155.876 27.307-215.04 72.818l493.796 493.795c45.51-59.164 72.817-134.258 72.817-215.04C864.711 189.44000000000005 706.56 31.289999999999964 512 31.289999999999964z"  horiz-adv-x="1024" />

    
    <glyph glyph-name="enable" unicode="&#58883;" d="M512 842.656c-265.088 0-480-214.912-480-480 0-265.152 214.912-480 480-480 265.152 0 480 214.848 480 480 0 265.088-214.848 480-480 480z m-96-777.6l-222.016 220.8 101.952 100.8 120.064-120 288 288 102.016-100.8L416 65.05600000000004z"  horiz-adv-x="1024" />

    
    <glyph glyph-name="event" unicode="&#58882;" d="M780.19 749.6659999999999v97.62C780.19 874.204 758.296 896 731.43 896c-26.917 0-48.762-21.797-48.762-48.713v-97.621c0-26.917 21.894-48.714 48.762-48.714 26.916 0 48.761 21.797 48.761 48.714zM304.762 700.952c20.187 0 36.571 16.287 36.571 36.67V859.33C341.333 879.567 324.998 896 304.762 896H280.38c-20.187 0-36.571-16.286-36.571-36.669v-121.66c0-20.286 16.335-36.719 36.571-36.719h24.38zM30.671 798.476C13.702 798.476 0 784.2860000000001 0 766.8779999999999v-863.232C0-113.85900000000004 13.702-128 30.622-128H993.33c16.969 0 30.671 14.19 30.671 31.646V766.8779999999999c0 17.457-13.75 31.598-30.671 31.598H828.952v-91.233c0-30.623-32.768-55.053-73.191-55.053h-48.665c-40.57 0-73.191 24.625-73.191 55.053V798.476h-243.81v-91.233c0-30.623-32.768-55.053-73.191-55.053h-48.665c-40.57 0-73.191 24.625-73.191 55.053V798.476H30.67z m798.281-341.333h146.286v-146.286H828.952V457.143z m0-195.048h146.286V115.80999999999995H828.952V262.095z m0-195.047h146.286v-128.05c0-10.044-9.362-18.236-20.968-18.236H828.952V67.048zM633.905 457.143H780.19v-146.286H633.905V457.143z m0-195.048H780.19V115.80999999999995H633.905V262.095z m0-195.047H780.19v-146.286H633.905V67.048zM438.857 457.143h146.286v-146.286H438.857V457.143z m0-390.095h146.286v-146.286H438.857V67.048zM243.81 457.143h146.285v-146.286H243.81V457.143z m0-195.048h146.285V115.80999999999995H243.81V262.095z m0-195.047h146.285v-146.286H243.81V67.048z m-48.762-146.286H69.73c-11.606 0-20.968 8.143-20.968 18.237V67.048h146.286v-146.286z m0 195.048H48.762V262.095h146.286V115.80999999999995z m0 195.047H48.762V457.143h146.286v-146.286z"  horiz-adv-x="1024" />

    
    <glyph glyph-name="copy" unicode="&#58881;" d="M394.667 789.333h448c41.237 0 74.666-33.43 74.666-74.666v-448c0-41.238-33.43-74.667-74.666-74.667h-448C353.429 192 320 225.42999999999995 320 266.66700000000003v448c0 41.237 33.43 74.666 74.667 74.666z m0-64c-5.891 0-10.667-4.775-10.667-10.666v-448c0-5.891 4.776-10.667 10.667-10.667h448c5.89 0 10.666 4.776 10.666 10.667v448c0 5.89-4.775 10.666-10.666 10.666h-448zM640 128c0 17.673 14.327 32 32 32 17.673 0 32-14.327 32-32v-74.667c0-41.237-33.43-74.666-74.667-74.666h-448c-41.237 0-74.666 33.43-74.666 74.666v448c0 41.238 33.43 74.667 74.666 74.667H256c17.673 0 32-14.327 32-32 0-17.673-14.327-32-32-32h-74.667c-5.89 0-10.666-4.776-10.666-10.667v-448c0-5.89 4.775-10.666 10.666-10.666h448c5.891 0 10.667 4.775 10.667 10.666V128z"  horiz-adv-x="1024" />

    
    <glyph glyph-name="activities" unicode="&#58942;" d="M142.4 237.5L512-2.7l369.6 240.2-369.5 240.2-369.7-240.2zM512.1-54.2L63.3 237.5l448.8 291.7 448.8-291.7-448.8-291.7zM221.6 237.5l290.5-188.8 290.5 188.8-290.5 188.8-290.5-188.8zM142.4 381.3L512 141.1l369.6 240.2-369.5 240.2-369.7-240.2zM512.1 89.6L63.3 381.3 512.1 673l448.8-291.7-448.8-291.7zM221.6 381.3l290.5-188.8 290.5 188.8-290.5 188.8-290.5-188.8zM142.4 525.1L512 284.9l369.6 240.2-369.5 240.2-369.7-240.2zM512.1 233.4L63.3 525.1 512.1 816.8l448.8-291.7-448.8-291.7zM221.6 525.1l290.5-188.8 290.5 188.8-290.5 188.8-290.5-188.8z"  horiz-adv-x="1024" />

    
    <glyph glyph-name="arrow" unicode="&#58934;" d="M734.7 592.7L959.3 384 734.7 175.3l-40.2 43.1 113.2 127.2h-743v76.8h743L694.5 549.6z"  horiz-adv-x="1024" />

    
    <glyph glyph-name="-" unicode="&#58933;" d="M512 384m-447.7 0a447.7 447.7 0 1 1 895.4 0 447.7 447.7 0 1 1-895.4 0ZM260.2 440h503.6v-111.9H260.2z"  horiz-adv-x="1024" />

    
    <glyph glyph-name="annex" unicode="&#58931;" d="M412.4 56.8c-38.4-36.6-96.1-51.4-150.2-38.8-53.9 12.6-96 50.6-109.9 99.1-13.8 48.2 2.4 99.5 42.5 133.9l-0.8 0.9 1-0.9 527.7 477.7c34.7 29.6 90.4 28.9 124.1-1.7 16.2-14.7 25.3-34.1 25.6-54.6 0.3-20.5-8.1-40-23.6-54.9l-514-465.2c-5.9-5.4-14.6-7.4-22.7-5.4-7.9 1.9-14 7.3-16 14.2-2 6.6 0.2 13.5 5.7 18.5l475.4 430.7-61.2 55.4-474.1-429.3c-20.4-18.4-32.2-44.1-32.2-70.4 0-26.7 11.4-51.7 32.2-70.4 42-38 110.5-38 152.7-0.1l513.8 465.3c32.7 29.5 51.4 70.5 51.4 112.4 0 41.9-18.7 82.9-51.4 112.4-32.8 29.8-76.4 46.2-122.7 46.2h-0.2c-45.6 0-90.3-16.8-122.6-46L135.7 308.4l-1.2-1C89.8 267 64.2 210.9 64.2 153.5c0-57.3 25.6-113.4 70.3-153.9 45-40.9 104.9-63.4 168.6-63.4 59.6 0 115.8 19.7 160.4 56.4l0.2-0.3 451.6 408.9-61.3 55.5-441.6-399.9z"  horiz-adv-x="1024" />

    
    <glyph glyph-name="authentication" unicode="&#58930;" d="M182 663.4v-339.5c0-163 234.2-349.6 330-349.6 95.8 0 330 186.6 330 349.6V663.4c-40.9 4.5-107.4 15.7-176.4 44-70.7 29-124.4 60.5-153.7 79.2-29.1-18.8-82.9-50.3-153.6-79.2-68.9-28.3-135.4-39.6-176.3-44M512-63.8c-112.7 0-368.1 198.7-368.1 387.7V697.5l34 3.7c40.4 4.4 102.1 15.2 166.1 41.4 70.3 28.8 122.5 60 147.4 76L512 831.9l20.6-13.2c25.1-16.1 77.7-47.4 147.5-76 64-26.2 125.6-36.9 166.1-41.4l34-3.7V324c-0.1-189.1-255.5-387.8-368.2-387.8zM220.1 630v-306.2c0-146 220.9-311.6 291.9-311.6s291.9 165.6 291.9 311.6V630c-42.6 6.7-96.8 19.1-152.7 42-58.5 24-105.7 49.5-139.2 69.7-30.8-18.6-79-45-139.1-69.6-56-22.9-110.2-35.3-152.8-42.1zM465.6 195.4L328.4 394.3l62.6 43.2 87-126 211 198.2 52.1-55.5z"  horiz-adv-x="1024" />

    
    <glyph glyph-name="edit" unicode="&#58917;" d="M899.9 640.6L768.7 771.7c-32.4 32.4-85.3 32.4-118-0.1L291.5 412.3c-12.7-12.7-24.1-32.8-28.5-50.2l-47.3-188.3c-6.5-25.9-0.1-51.7 17.2-69 12.9-12.9 30.4-19.7 49.3-19.7 6.5 0 13.1 0.8 19.8 2.5l188.2 47.2c17.5 4.4 37.7 15.8 50.3 28.5l359.2 359.2c15.9 15.8 24.6 36.8 24.6 59.2 0 22.2-8.6 43.1-24.4 58.9zM464.7 236.7l-133.1-33.4L365.7 338l344.1 344.1 100.5-100.5-345.6-344.9zM693.6 128.2h0.1v-53.1H203.3V569h201.3V674H98.2v-704h700.5V241.2H693.6z"  horiz-adv-x="1024" />

    
    <glyph glyph-name="EMQlogo" unicode="&#58916;" d="M951.4 416.7L760.1 748.2c-11.7 20.2-33.4 32.7-56.7 32.7H320.6c-23.3 0-45.1-12.5-56.7-32.7L72.6 416.7c-11.7-20.2-11.7-45.3 0-65.5L264 19.7c11.7-20.2 33.4-32.7 56.7-32.7h382.7c23.3 0 45.1 12.5 56.7 32.7l191.4 331.5c11.6 20.3 11.6 45.3-0.1 65.5z m-37.8-43.6L722.3 41.6c-3.9-6.7-11.1-10.9-18.9-10.9H320.6c-7.8 0-15 4.2-18.9 10.9L110.4 373.1c-3.9 6.7-3.9 15.1 0 21.8l191.4 331.4c3.9 6.7 11.1 10.9 18.9 10.9h382.7c7.8 0 15-4.2 18.9-10.9l191.4-331.4c3.8-6.7 3.8-15.1-0.1-21.8zM285.5 386.9h76.8V418h-76.8v46.2h89.8v32.4H245.6v-194h130v32.1h-90.1zM501.1 355.9l-49.8 140.7h-52.2v-194H439v53l-4 91.4 52.3-144.4h27.4l52.4 144.6-4-91.6v-53h40.1v194h-52.5zM757.7 487.6c-12.6 7.8-26.9 11.7-43.1 11.7-16.2 0-30.5-3.9-43.1-11.7-12.6-7.8-22.3-18.9-29.2-33.4-6.9-14.5-10.3-31.3-10.3-50.4v-9.6c0.1-18.7 3.6-35.2 10.5-49.5 6.9-14.3 16.7-25.4 29.3-33.1 12.6-7.7 27-11.6 43-11.6 5.1 0 9.9 0.4 14.7 1.2l41.3-33.2 25.4 22.5-32.2 25.3c10.4 8.1 18.5 18.8 24.4 32.2s8.8 29.1 8.8 47.2v8.7c0 19-3.4 35.8-10.3 50.3s-16.6 25.6-29.2 33.4z m-1-93.1c-0.1-20.2-3.7-35.5-10.9-46s-17.5-15.8-30.9-15.8c-13.7 0-24.2 5.5-31.4 16.4-7.3 10.9-10.9 26.3-10.9 46.1v9.5c0.1 20.2 3.8 35.5 11.1 45.9 7.3 10.4 17.6 15.7 31 15.7 13.5 0 23.9-5.3 31.2-15.9 7.3-10.6 10.9-26 10.9-46.4v-9.5z"  horiz-adv-x="1024" />

    
    <glyph glyph-name="account" unicode="&#58910;" d="M63.9 771.8H960v-774.1H63.9zM63.9 770.3v-774H960v774H63.9z m805.7-683.6H154.4V512.2h715.2v-425.5z m0 516H154.4v77.1h715.2v-77.1zM501.3 428.5h298.6V338H501.3z"  horiz-adv-x="1024" />

    
    <glyph glyph-name="reconfigure" unicode="&#58911;" d="M213 599.1h743v99.2H213v24.8H64.2v-148.8H213zM811.6 425.5v-24.8H64.2v-99.1h747.4v-24.8h148.8V425.5zM213 128H64.2v-148.7H213v25.6l742.9-2.1 0.3 99.2-743.2 2.1z"  horiz-adv-x="1024" />

    
    <glyph glyph-name="restart" unicode="&#58912;" d="M941.3 388c-7.1 135.5-75.7 257-188.1 333.3l-53.6-79c87.4-59.4 140.8-154 146.3-259.4 4.7-89.2-25.7-174.8-85.4-241.2s-141.8-105.5-231-110.1c-88.7-4.8-174.8 25.7-241.2 85.4S182.8 258.8 178.2 348c-6.1 115.4 46.8 224.2 141.5 290.9l-55 78.1C142.9 631.2 75 491.4 82.7 343c6-114.6 56.3-220.1 141.6-296.9 79.6-71.6 180.8-110.4 287.1-110.4 7.6 0 15.3 0.2 23 0.6 114.7 6 220.1 56.3 296.9 141.6 76.9 85.3 116 195.4 110 310.1zM465.8 832.4h95.5v-477.6h-95.5z"  horiz-adv-x="1024" />

    
    <glyph glyph-name="deployments" unicode="&#58913;" d="M926.9 543.2V797.4H672.6v-127.1H354.8V797.4H100.6v-254.2h127.1v-317.8H100.6v-254.3h254.2V98.2h317.8v-127.1h254.3V225.4H799.7V543.2zM198.9 695.1v-658.7h658.7V695.1H198.9z m574.8-574.8H282.8V611.2h490.9v-490.9zM97.1 796.9h251.5v-251.5H97.1zM97.1 222.1h251.5v-251.5H97.1zM671.9 796.9h251.5v-251.5H671.9zM671.9 222.1h251.5v-251.5H671.9z"  horiz-adv-x="1024" />

    
    <glyph glyph-name="help" unicode="&#58914;" d="M542.7 384m-399.5 0a399.5 399.5 0 1 1 799 0 399.5 399.5 0 1 1-799 0ZM512 829.6C266.3 829.6 66.4 629.7 66.4 384S266.3-61.6 512-61.6 957.6 138.3 957.6 384 757.7 829.6 512 829.6z m0-799c-194.9 0-353.4 158.5-353.4 353.4S317.1 737.4 512 737.4 865.4 578.9 865.4 384 706.9 30.6 512 30.6zM533 251.5c-22 20.6-59.9 21-82.4 0-11.3-10.6-17-24.4-17-41.1 0-16.7 5.7-30.5 17-41.1 11.6-10.8 25.4-16.3 40.9-16.3 15.9 0 29.7 5.3 40.9 15.8 11.3 10.6 17.6 25.4 17.6 41.7 0 15.8-5.8 29.8-16.7 40.8l-0.3 0.2zM599.2 614.8c-24.5 22-57.4 33.2-97.7 33.2-44.7 0-80.9-13.2-107.4-39.1-27-25.8-40.8-61.9-40.8-107.4v-15.4h93.8v15.4c0 20.2 3.6 35.4 11.2 45.6 4.7 6.8 13.8 16 39.3 16 15.1 0 26-3.6 33.1-10.7 7.5-7.9 11.3-18.9 11.3-32.6 0-10.3-3.9-20.3-11.3-29.3l-5.2-6.3c-38.5-34.3-60.2-58.2-68.2-74.7-8.6-16.6-12.8-36.6-12.8-61.3v-23.1h94.4v23.1c0 10.7 2.1 20 6.7 29.1 4.3 8.6 10.4 16.2 18.5 23 25.1 21.9 42.9 38.3 49.8 46 15.6 20.9 23.5 46.8 23.5 77.3 0.1 38.2-12.8 68.9-38.2 91.2z"  horiz-adv-x="1024" />

    
    <glyph glyph-name="delete" unicode="&#58915;" d="M371.032 528.821l89.2 0.349 1.742-446.1-89.2-0.349zM549.433 528.821l89.2 0.349 1.743-446.1-89.2-0.349zM735.1 707.4V796.6H288.9v-89.2h-223v-89.2h98.8l92.4-646.9h509.8l92.4 646.9h98.8v89.2h-223z m-45.6-646.8h-355L258 595.9h508l-76.5-535.3z"  horiz-adv-x="1024" />

    


  </font>
</defs>
</svg>
